<?xml version="1.0" encoding="UTF-8" standalone="no"?>
<svg
   xmlns:dc="http://purl.org/dc/elements/1.1/"
   xmlns:cc="http://creativecommons.org/ns#"
   xmlns:rdf="http://www.w3.org/1999/02/22-rdf-syntax-ns#"
   xmlns:svg="http://www.w3.org/2000/svg"
   xmlns="http://www.w3.org/2000/svg"
   id="svg8"
   version="1.1"
   viewBox="0 0 33.629208 12.840522"
   height="12.840522mm"
   width="33.629208mm">
  <defs
     id="defs2">
    <marker
       style="overflow:visible"
       id="Arrow1Sstart"
       refX="0"
       refY="0"
       orient="auto">
      <path
         transform="matrix(0.2,0,0,0.2,1.2,0)"
         style="fill-rule:evenodd;stroke:#000000;stroke-width:1.00000003pt"
         d="M 0,0 5,-5 -12.5,0 5,5 Z"
         id="path835" />
    </marker>
    <marker
       style="overflow:visible"
       id="marker1111"
       refX="0"
       refY="0"
       orient="auto">
      <path
         transform="matrix(0.8,0,0,0.8,10,0)"
         style="fill-rule:evenodd;stroke:#000000;stroke-width:1.00000003pt"
         d="M 0,0 5,-5 -12.5,0 5,5 Z"
         id="path1109" />
    </marker>
    <marker
       style="overflow:visible"
       id="marker1095"
       refX="0"
       refY="0"
       orient="auto">
      <path
         transform="matrix(0.8,0,0,0.8,10,0)"
         style="fill-rule:evenodd;stroke:#000000;stroke-width:1.00000003pt"
         d="M 0,0 5,-5 -12.5,0 5,5 Z"
         id="path1093" />
    </marker>
    <marker
       style="overflow:visible"
       id="Arrow1Lstart"
       refX="0"
       refY="0"
       orient="auto">
      <path
         transform="matrix(0.8,0,0,0.8,10,0)"
         style="fill-rule:evenodd;stroke:#000000;stroke-width:1.00000003pt"
         d="M 0,0 5,-5 -12.5,0 5,5 Z"
         id="path823" />
    </marker>
  </defs>
  <metadata
     id="metadata5">
    <rdf:RDF>
      <cc:Work
         rdf:about="">
        <dc:format>image/svg+xml</dc:format>
        <dc:type
           rdf:resource="http://purl.org/dc/dcmitype/StillImage" />
        <dc:title></dc:title>
      </cc:Work>
    </rdf:RDF>
  </metadata>
  <g
     transform="translate(-18.124569,-39.107444)"
     id="layer1">
    <rect
       y="39.739944"
       x="18.757069"
       height="11.575521"
       width="32.364208"
       id="rect1157"
       style="fill:none;fill-opacity:1;stroke:#fbe555;stroke-width:1.26499999;stroke-linecap:butt;stroke-linejoin:bevel;stroke-miterlimit:4;stroke-dasharray:none;stroke-opacity:1;paint-order:stroke fill markers" />
    <g
       id="text5043"
       style="font-style:normal;font-weight:normal;font-size:10.58333302px;line-height:1.25;font-family:sans-serif;letter-spacing:0px;word-spacing:0px;fill:#000000;fill-opacity:1;stroke:none;stroke-width:1.2650001;stroke-miterlimit:4;stroke-dasharray:none"
       aria-label="zorgi">
      <path
         id="path5061"
         style="font-style:normal;font-variant:normal;font-weight:normal;font-stretch:normal;font-family:'Courier New';-inkscape-font-specification:'Courier New';fill:none;fill-opacity:1;stroke:#f45905;stroke-width:1.2650001;stroke-linecap:butt;stroke-linejoin:bevel;stroke-miterlimit:4;stroke-dasharray:none;stroke-opacity:1;paint-order:stroke fill markers"
         d="m 23.973214,43.405955 v 0.387573 l -3.250448,3.653524 h 2.935221 v -0.599447 q 0,-0.155029 0.05685,-0.222208 0.06201,-0.06718 0.160196,-0.06718 0.09819,0 0.160197,0.06718 0.06201,0.06718 0.06201,0.222208 l -0.0052,1.033529 h -3.96872 v -0.387573 l 3.234944,-3.648356 h -2.69751 v 0.589111 q 0,0.155029 -0.06201,0.222209 -0.06201,0.06718 -0.15503,0.06718 -0.09818,0 -0.160196,-0.06718 -0.06201,-0.06718 -0.06201,-0.222209 v -1.028361 z" />
      <path
         id="path5063"
         style="font-style:normal;font-variant:normal;font-weight:normal;font-stretch:normal;font-family:'Courier New';-inkscape-font-specification:'Courier New';fill:none;fill-opacity:1;stroke:#f45905;stroke-width:1.2650001;stroke-linecap:butt;stroke-linejoin:bevel;stroke-miterlimit:4;stroke-dasharray:none;stroke-opacity:1;paint-order:stroke fill markers"
         d="m 30.846179,45.65388 q 0,0.992187 -0.713135,1.694987 -0.707967,0.702799 -1.71049,0.702799 -1.012858,0 -1.720825,-0.702799 -0.707967,-0.707967 -0.707967,-1.694987 0,-0.992188 0.707967,-1.694987 0.707967,-0.707967 1.720825,-0.707967 1.002523,0 1.71049,0.702799 0.713135,0.7028 0.713135,1.700155 z m -0.43925,0 q 0,-0.816488 -0.583943,-1.390096 -0.578776,-0.573608 -1.405599,-0.573608 -0.826823,0 -1.410767,0.578776 -0.578776,0.573608 -0.578776,1.384928 0,0.806152 0.578776,1.384928 0.583944,0.578776 1.410767,0.578776 0.826823,0 1.405599,-0.573608 0.583943,-0.578776 0.583943,-1.390096 z" />
      <path
         id="path5065"
         style="font-style:normal;font-variant:normal;font-weight:normal;font-stretch:normal;font-family:'Courier New';-inkscape-font-specification:'Courier New';fill:none;fill-opacity:1;stroke:#f45905;stroke-width:1.2650001;stroke-linecap:butt;stroke-linejoin:bevel;stroke-miterlimit:4;stroke-dasharray:none;stroke-opacity:1;paint-order:stroke fill markers"
         d="m 34.246488,43.405955 v 1.09554 q 0.847494,-0.764811 1.266073,-0.981852 0.423746,-0.222208 0.780314,-0.222208 0.387573,0 0.718302,0.263549 0.335897,0.258383 0.335897,0.392741 0,0.09819 -0.06718,0.165365 -0.06201,0.06201 -0.160197,0.06201 -0.05168,0 -0.08785,-0.0155 -0.03617,-0.02067 -0.134359,-0.118856 -0.180867,-0.180868 -0.315226,-0.248047 -0.134359,-0.06718 -0.26355,-0.06718 -0.28422,0 -0.687296,0.227376 -0.397909,0.227376 -1.384929,1.111043 v 2.377116 h 1.922363 q 0.160197,0 0.227377,0.06201 0.06718,0.05684 0.06718,0.155029 0,0.09302 -0.06718,0.155029 -0.06718,0.06201 -0.227377,0.06201 h -3.405476 q -0.15503,0 -0.222209,-0.05684 -0.06718,-0.06201 -0.06718,-0.155029 0,-0.08785 0.06201,-0.144694 0.06718,-0.06201 0.227377,-0.06201 h 1.049031 v -3.61735 h -0.800985 q -0.155029,0 -0.222208,-0.06201 -0.06718,-0.06201 -0.06718,-0.160197 0,-0.09302 0.06201,-0.155029 0.06718,-0.06201 0.227376,-0.06201 z" />
      <path
         id="path5067"
         style="font-style:normal;font-variant:normal;font-weight:normal;font-stretch:normal;font-family:'Courier New';-inkscape-font-specification:'Courier New';fill:none;fill-opacity:1;stroke:#f45905;stroke-width:1.2650001;stroke-linecap:butt;stroke-linejoin:bevel;stroke-miterlimit:4;stroke-dasharray:none;stroke-opacity:1;paint-order:stroke fill markers"
         d="m 42.571562,44.201772 v -0.795817 h 1.018025 q 0.15503,0 0.222209,0.06201 0.06718,0.06201 0.06718,0.160197 0,0.09302 -0.06718,0.155029 -0.06718,0.06201 -0.222209,0.06201 h -0.583943 v 4.335652 q 0,0.434082 -0.186035,0.775147 -0.124024,0.227376 -0.413412,0.470255 -0.289388,0.24288 -0.527099,0.346232 -0.237712,0.103353 -0.635621,0.103353 h -1.229899 q -0.155029,0 -0.222208,-0.06201 -0.06718,-0.05685 -0.06718,-0.15503 0,-0.09819 0.06718,-0.160197 0.06718,-0.06201 0.222208,-0.06201 l 1.245402,0.0052 q 0.382406,0 0.687297,-0.19637 0.310058,-0.196371 0.511597,-0.573609 0.113688,-0.217041 0.113688,-0.552937 V 46.8166 q -0.697632,0.956014 -1.79834,0.956014 -0.894002,0 -1.545125,-0.661459 -0.645956,-0.666626 -0.645956,-1.601969 0,-0.935344 0.645956,-1.596802 0.651123,-0.661458 1.545125,-0.661458 1.100708,0 1.79834,0.950846 z m 0,1.307414 q 0,-0.764811 -0.5271,-1.291911 -0.521932,-0.527099 -1.25057,-0.527099 -0.728637,0 -1.250569,0.532267 -0.521932,0.527099 -0.521932,1.286743 0,0.764811 0.521932,1.297078 0.521932,0.5271 1.250569,0.5271 0.728638,0 1.25057,-0.5271 0.5271,-0.532267 0.5271,-1.297078 z" />
      <path
         id="path5069"
         style="font-style:normal;font-variant:normal;font-weight:normal;font-stretch:normal;font-family:'Courier New';-inkscape-font-specification:'Courier New';fill:none;fill-opacity:1;stroke:#f45905;stroke-width:1.2650001;stroke-linecap:butt;stroke-linejoin:bevel;stroke-miterlimit:4;stroke-dasharray:none;stroke-opacity:1;paint-order:stroke fill markers"
         d="m 47.672025,41.178701 v 1.121379 h -0.640788 v -1.121379 z m 0.0155,2.227254 v 4.041097 h 1.705322 q 0.160197,0 0.227376,0.06201 0.06718,0.05684 0.06718,0.155029 0,0.09302 -0.06718,0.155029 -0.06718,0.06201 -0.227376,0.06201 h -3.844726 q -0.15503,0 -0.222209,-0.06201 -0.06718,-0.06201 -0.06718,-0.155029 0,-0.09819 0.06718,-0.155029 0.06718,-0.06201 0.222209,-0.06201 h 1.705322 V 43.845205 H 45.98737 q -0.155029,0 -0.227376,-0.06201 -0.06718,-0.06201 -0.06718,-0.155029 0,-0.09819 0.06718,-0.160197 0.06718,-0.06201 0.227376,-0.06201 z" />
    </g>
  </g>
</svg>
